<?xml version="1.0" encoding="iso-8859-1"?>
<!-- Generator: Adobe Illustrator 19.0.0, SVG Export Plug-In . SVG Version: 6.00 Build 0)  -->
<svg version="1.1" id="Capa_1" xmlns="http://www.w3.org/2000/svg" xmlns:xlink="http://www.w3.org/1999/xlink" x="0px" y="0px"
	 viewBox="0 0 512 512" style="enable-background:new 0 0 512 512;" xml:space="preserve">
<path style="fill:#90A4AE;" d="M320,405.333h-21.333c-5.891,0-10.667-4.776-10.667-10.667c0-5.891,4.776-10.667,10.667-10.667H320
	c29.455,0,53.333-23.878,53.333-53.333v-192c0-5.891,4.776-10.667,10.667-10.667c5.891,0,10.667,4.776,10.667,10.667v192
	C394.667,371.904,361.237,405.333,320,405.333z"/>
<path style="fill:#607D8B;" d="M213.333,106.667c-5.891,0-10.667-4.776-10.667-10.667V53.333c0-5.891,4.776-10.667,10.667-10.667
	c5.891,0,10.667,4.776,10.667,10.667V96C224,101.891,219.224,106.667,213.333,106.667z"/>
<path style="fill:#546E7A;" d="M256,362.667h42.667c5.891,0,10.667,4.776,10.667,10.667V416c0,5.891-4.776,10.667-10.667,10.667H256
	c-5.891,0-10.667-4.776-10.667-10.667v-42.667C245.333,367.442,250.109,362.667,256,362.667z"/>
<path style="fill:#607D8B;" d="M256,128h-85.333c-5.891,0-10.667,4.776-10.667,10.667v320c0,5.891,4.776,10.667,10.667,10.667
	s10.667-4.776,10.667-10.667h64c0,5.891,4.776,10.667,10.667,10.667c5.891,0,10.667-4.776,10.667-10.667v-320
	C266.667,132.776,261.891,128,256,128z"/>
<path style="fill:#455A64;" d="M170.667,85.333H256c5.891,0,10.667,4.776,10.667,10.667v42.667c0,5.891-4.776,10.667-10.667,10.667
	h-85.333c-5.891,0-10.667-4.776-10.667-10.667V96C160,90.109,164.776,85.333,170.667,85.333z"/>
<g>
	<path style="fill:#FFC107;" d="M106.667,0H320c5.891,0,10.667,4.776,10.667,10.667v42.667C330.667,59.224,325.891,64,320,64
		H106.667C100.776,64,96,59.224,96,53.333V10.667C96,4.776,100.776,0,106.667,0z"/>
	<path style="fill:#FFC107;" d="M362.667,64h42.667C411.224,64,416,68.776,416,74.667v64c0,5.891-4.776,10.667-10.667,10.667
		h-42.667c-5.891,0-10.667-4.776-10.667-10.667v-64C352,68.776,356.776,64,362.667,64z"/>
</g>
<path style="fill:#455A64;" d="M277.333,448h-128C119.878,448,96,471.878,96,501.333c0,5.891,4.776,10.667,10.667,10.667H320
	c5.891,0,10.667-4.776,10.667-10.667C330.667,471.878,306.789,448,277.333,448z"/>
<path d="M320,512H106.667C100.776,512,96,507.224,96,501.333C96,471.878,119.878,448,149.333,448h128
	c29.455,0,53.333,23.878,53.333,53.333C330.667,507.224,325.891,512,320,512z M119.147,490.667h188.352
	c-4.52-12.784-16.606-21.331-30.165-21.333h-128C135.766,469.326,123.669,477.875,119.147,490.667z"/>
<path d="M256,469.333c-5.891,0-10.667-4.776-10.667-10.667V149.333h-64v309.333c0,5.891-4.776,10.667-10.667,10.667
	S160,464.558,160,458.667v-320c0-5.891,4.776-10.667,10.667-10.667H256c5.891,0,10.667,4.776,10.667,10.667v320
	C266.667,464.558,261.891,469.333,256,469.333z"/>
<path d="M256,149.333h-85.333c-5.891,0-10.667-4.776-10.667-10.667V96c0-5.891,4.776-10.667,10.667-10.667H256
	c5.891,0,10.667,4.776,10.667,10.667v42.667C266.667,144.558,261.891,149.333,256,149.333z M181.333,128h64v-21.333h-64V128z"/>
<path d="M213.333,106.667c-5.891,0-10.667-4.776-10.667-10.667V53.333c0-5.891,4.776-10.667,10.667-10.667
	c5.891,0,10.667,4.776,10.667,10.667V96C224,101.891,219.224,106.667,213.333,106.667z"/>
<path d="M320,64H106.667C100.776,64,96,59.224,96,53.333V10.667C96,4.776,100.776,0,106.667,0H320
	c5.891,0,10.667,4.776,10.667,10.667v42.667C330.667,59.224,325.891,64,320,64z M117.333,42.667h192V21.333h-192V42.667z"/>
<path d="M298.667,426.667H256c-5.891,0-10.667-4.776-10.667-10.667v-42.667c0-5.891,4.776-10.667,10.667-10.667h42.667
	c5.891,0,10.667,4.776,10.667,10.667V416C309.333,421.891,304.558,426.667,298.667,426.667z M266.667,405.333H288V384h-21.333
	V405.333z"/>
<path d="M320,405.333h-21.333c-5.891,0-10.667-4.776-10.667-10.667c0-5.891,4.776-10.667,10.667-10.667H320
	c29.455,0,53.333-23.878,53.333-53.333v-192c0-5.891,4.776-10.667,10.667-10.667c5.891,0,10.667,4.776,10.667,10.667v192
	C394.667,371.904,361.237,405.333,320,405.333z"/>
<path d="M405.333,149.333h-42.667c-5.891,0-10.667-4.776-10.667-10.667v-64C352,68.776,356.776,64,362.667,64h42.667
	C411.224,64,416,68.776,416,74.667v64C416,144.558,411.224,149.333,405.333,149.333z M373.333,128h21.333V85.333h-21.333V128z"/>
<g>
</g>
<g>
</g>
<g>
</g>
<g>
</g>
<g>
</g>
<g>
</g>
<g>
</g>
<g>
</g>
<g>
</g>
<g>
</g>
<g>
</g>
<g>
</g>
<g>
</g>
<g>
</g>
<g>
</g>
</svg>
